<?xml version="1.0" encoding="utf-8"?>
<!-- Generator: Adobe Illustrator 23.0.3, SVG Export Plug-In . SVG Version: 6.00 Build 0)  -->
<svg version="1.1" id="Layer_1" xmlns="http://www.w3.org/2000/svg" xmlns:xlink="http://www.w3.org/1999/xlink" x="0px" y="0px"
	 viewBox="0 0 32 32" style="enable-background:new 0 0 32 32;" xml:space="preserve">
<style type="text/css">
	.st0{clip-path:url(#SVGID_2_);}
	.st1{clip-path:url(#SVGID_4_);}
</style>
<g>
	<g>
		<path d="M18.40625,26c-0.1376953,0-0.2758789-0.0283203-0.4057617-0.0859375L7.6240234,21.3066406H4.40625
			c-0.5522461,0-1-0.4472656-1-1v-8.6132813c0-0.5522461,0.4477539-1,1-1h3.2177734l10.3764648-4.6074219
			c0.3095703-0.1376953,0.6669922-0.1083984,0.9506836,0.0756836C19.2348633,6.3461914,19.40625,6.6616211,19.40625,7v18
			c0,0.3388672-0.1713867,0.6542969-0.4550781,0.8388672C18.7866211,25.9453125,18.5966797,26,18.40625,26z M5.40625,19.3066406
			h2.4296875c0.1396484,0,0.277832,0.0292969,0.4057617,0.0859375l9.1645508,4.0693359V8.5380859l-9.1645508,4.0693359
			c-0.1279297,0.0566406-0.2661133,0.0859375-0.4057617,0.0859375H5.40625V19.3066406z"/>
	</g>
	<g>
		<path d="M22.78125,21.5947266c-0.5522461,0-1-0.4472656-1-1v-9.4526367c0-0.5522461,0.4477539-1,1-1s1,0.4477539,1,1v9.4526367
			C23.78125,21.1474609,23.3334961,21.5947266,22.78125,21.5947266z"/>
	</g>
	<g>
		<path d="M27.59375,25.7373047c-0.5522461,0-1-0.4472656-1-1V7c0-0.5522461,0.4477539-1,1-1s1,0.4477539,1,1v17.7373047
			C28.59375,25.2900391,28.1459961,25.7373047,27.59375,25.7373047z"/>
	</g>
</g>
</svg>
